<?xml version="1.0" encoding="utf-8"?>
<!-- Generator: Adobe Illustrator 24.2.1, SVG Export Plug-In . SVG Version: 6.00 Build 0)  -->
<svg version="1.1" id="Layer_1" xmlns="http://www.w3.org/2000/svg" xmlns:xlink="http://www.w3.org/1999/xlink" x="0px" y="0px"
	 viewBox="0 0 24 24" style="enable-background:new 0 0 24 24;" xml:space="preserve">
<style type="text/css">
	.st0{fill:none;}
	.st1{fill:none;stroke:#000000;stroke-width:2;stroke-linecap:round;stroke-miterlimit:10;}
	.st2{fill:none;stroke:#000000;stroke-linejoin:round;stroke-miterlimit:10;}
</style>
<path class="st0" d="M0,0h24v24H0V0z"/>
<path class="st1" d="M3.8,9.6l2.8-7.8L3.8,9.6z M20.3,9.6l-2.8-7.8L20.3,9.6z M20.3,10.3H3.9v11h16.4V10.3z M17.5,1.8H6.6"/>
<line class="st2" x1="6.6" y1="7.4" x2="17.6" y2="7.4"/>
<line class="st2" x1="7.6" y1="4.8" x2="16.6" y2="4.8"/>
<polygon points="8,17.1 10.7,17.1 10.7,19.8 13.4,19.8 13.4,17.1 16,17.1 16,14.4 13.3,14.4 13.3,11.8 10.6,11.8 10.6,14.5 8,14.5 
	"/>
</svg>
