<?xml version="1.0" encoding="utf-8"?>
<!-- Generator: Adobe Illustrator 24.2.1, SVG Export Plug-In . SVG Version: 6.00 Build 0)  -->
<svg version="1.1" id="Layer_1" xmlns="http://www.w3.org/2000/svg" xmlns:xlink="http://www.w3.org/1999/xlink" x="0px" y="0px"
	 viewBox="0 0 24 24" style="enable-background:new 0 0 24 24;" xml:space="preserve">
<style type="text/css">
	.st0{fill:none;}
</style>
<path class="st0" d="M0,0h24v24H0V0z"/>
<path d="M20,6h-8l-2-2H4C2.9,4,2,4.9,2,6v12c0,1.1,0.9,2,2,2h16c1.1,0,2-0.9,2-2V8C22,6.9,21.1,6,20,6z M20,18H4V6h5.2l2,2H20V18z
	 M8,14.3h2.7V17h2.7v-2.7H16v-2.7h-2.7V9h-2.7v2.7H8V14.3z"/>
</svg>
